<svg width="405" height="694" viewBox="0 0 405 694" fill="none" xmlns="http://www.w3.org/2000/svg">
<g filter="url(#filter0_d_40_141)">
<path fill-rule="evenodd" clip-rule="evenodd" d="M550.679 534.945C523.902 580.87 480.563 609.269 442.309 645.841C377.351 707.94 334.772 813.895 248.736 823.604C163.862 833.182 80.4863 767.497 43.939 690.797C9.03955 617.555 43.9191 527.296 69.0102 446.424C86.8167 389.031 146.213 355.516 165.624 298.59C195.718 210.329 130.68 76.9235 210.603 31.1671C286.869 -12.4958 347.489 117.159 424.283 150.506C480.822 175.057 562.736 148.752 598.499 199.603C634.331 250.554 601.236 324.547 592.039 389.043C584.766 440.044 576.913 489.952 550.679 534.945Z" fill="#EBE7FF"/>
</g>
<defs>
<filter id="filter0_d_40_141" x="0.220703" y="0.278809" width="643.573" height="860.257" filterUnits="userSpaceOnUse" color-interpolation-filters="sRGB">
<feFlood flood-opacity="0" result="BackgroundImageFix"/>
<feColorMatrix in="SourceAlpha" type="matrix" values="0 0 0 0 0 0 0 0 0 0 0 0 0 0 0 0 0 0 127 0" result="hardAlpha"/>
<feOffset dy="7"/>
<feGaussianBlur stdDeviation="14.5"/>
<feColorMatrix type="matrix" values="0 0 0 0 0.392157 0 0 0 0 0.392157 0 0 0 0 0.435294 0 0 0 0.2 0"/>
<feBlend mode="normal" in2="BackgroundImageFix" result="effect1_dropShadow_40_141"/>
<feBlend mode="normal" in="SourceGraphic" in2="effect1_dropShadow_40_141" result="shape"/>
</filter>
</defs>
</svg>
