<svg width="126" height="55" viewBox="0 0 126 55" fill="none" xmlns="http://www.w3.org/2000/svg">
<circle cx="27.2515" cy="27.5" r="27.2515" fill="#6F57E6"/>
<path d="M27.251 27.1778C27.2562 20.4795 31.4411 16.5952 36.7811 16.5996C39.3081 16.5996 41.3803 17.8252 42.7276 19.1741L40.2412 22.0012C39.2909 21.1072 38.2187 20.5497 36.7781 20.5484C33.9483 20.5484 31.88 22.9838 31.8774 27.0308C31.8739 31.184 33.9383 33.5958 36.9457 33.6001C38.3833 33.6001 39.5703 32.886 40.5384 31.8192L43.0196 34.5871C41.3924 36.5365 39.1608 37.5524 36.4774 37.5502C31.5223 37.5441 27.2458 33.9949 27.251 27.1778Z" fill="white"/>
<path d="M27.7312 36.8181L23.2292 28.7302C25.358 27.7559 26.7831 25.8741 26.7852 22.9057C26.7891 18.0989 23.3152 16.6084 19.0923 16.6049L12.0054 16.5996L11.9902 36.8045L16.5108 36.808L16.516 29.5399H18.8858L22.6841 36.8107L27.7312 36.8181ZM16.5229 20.2326H18.7221C21.0927 20.2326 22.364 20.9059 22.3623 22.9005C22.3623 24.8784 21.0884 25.9109 18.7177 25.9092H16.5186L16.5229 20.2326Z" fill="white"/>
<path d="M97.1826 27.6866C97.192 15.5373 104.783 8.49205 114.468 8.50001C119.052 8.50001 122.81 10.723 125.254 13.1696L120.744 18.2974C119.02 16.6759 117.076 15.6646 114.463 15.6623C109.33 15.6623 105.579 20.0796 105.574 27.4201C105.568 34.9531 109.312 39.3275 114.767 39.3354C117.374 39.3354 119.527 38.0401 121.283 36.1052L125.784 41.1256C122.832 44.6614 118.785 46.504 113.917 46.5001C104.93 46.4889 97.1732 40.0515 97.1826 27.6866Z" fill="#5E6282"/>
<path d="M98.0538 45.1721L89.8881 30.5023C93.7492 28.7352 96.334 25.322 96.3379 19.938C96.345 11.2195 90.0441 8.51591 82.3845 8.50955L69.5304 8.5L69.5029 45.1475L77.7023 45.1538L77.7117 31.9711H82.01L88.8994 45.1586L98.0538 45.1721ZM77.7242 15.0894H81.7131C86.0129 15.0894 88.3188 16.3107 88.3156 19.9284C88.3156 23.5159 86.0051 25.3888 81.7052 25.3856H77.7164L77.7242 15.0894Z" fill="#5E6282"/>
</svg>
