<svg width="25" height="25" viewBox="0 0 25 25" fill="none" xmlns="http://www.w3.org/2000/svg">
<path d="M9.08711 20.0609V15.9609L10.9871 16.1609C11.5402 16.1301 12.0637 15.9008 12.4613 15.515C12.8588 15.1292 13.1038 14.6128 13.1511 14.0609V8.36087C13.1577 6.92021 12.5918 5.53593 11.5778 4.51254C10.5638 3.48915 9.18477 2.9105 7.74411 2.90387C6.30345 2.89724 4.91917 3.46318 3.89578 4.47718C2.8724 5.49119 2.29374 6.87021 2.28711 8.31087C2.28711 11.1109 2.94311 11.3649 3.28711 12.8609C3.51959 13.7643 3.52954 14.7107 3.31611 15.6189L2.28711 20.0609" stroke="#7B61FF" stroke-width="2" stroke-linecap="round" stroke-linejoin="round"/>
<path d="M20.0869 17.8608C21.4927 16.4548 22.2828 14.5482 22.2833 12.5599C22.2839 10.5717 21.4949 8.66459 20.0899 7.25781" stroke="#7B61FF" stroke-width="2" stroke-linecap="round" stroke-linejoin="round"/>
<path d="M17.2867 15.0607C17.6139 14.7336 17.873 14.3449 18.049 13.917C18.225 13.4891 18.3144 13.0306 18.3121 12.568C18.3097 12.1053 18.2157 11.6477 18.0354 11.2217C17.8551 10.7956 17.5922 10.4095 17.2617 10.0857" stroke="#7B61FF" stroke-width="2" stroke-linecap="round" stroke-linejoin="round"/>
</svg>
