<svg width="627" height="499" viewBox="0 0 627 499" fill="none" xmlns="http://www.w3.org/2000/svg">
<g clip-path="url(#clip0_40_926)">
<path d="M25.1903 0C18.6596 0.0074327 12.3985 2.60504 7.78057 7.22296C3.16265 11.8409 0.565042 18.102 0.557617 24.6327V474.255C0.56515 480.786 3.1628 487.047 7.78071 491.665C12.3986 496.283 18.6597 498.88 25.1903 498.888H271.471C278.001 498.88 284.262 496.283 288.88 491.665C293.498 487.047 296.096 480.786 296.103 474.255V24.6327C296.096 18.102 293.498 11.8409 288.88 7.22295C284.262 2.60504 278.001 0.00743063 271.471 0H25.1903Z" fill="#E6E6E6"/>
<path d="M33.242 13.9956C28.2873 14.0012 23.5371 15.972 20.0336 19.4755C16.5301 22.979 14.5593 27.7292 14.5537 32.6839V466.204C14.5593 471.159 16.53 475.909 20.0335 479.413C23.537 482.916 28.2872 484.887 33.242 484.893H263.421C268.375 484.887 273.126 482.916 276.629 479.413C280.133 475.909 282.103 471.159 282.109 466.204V32.6839C282.103 27.7292 280.133 22.979 276.629 19.4755C273.126 15.972 268.375 14.0012 263.421 13.9956H33.242Z" fill="white"/>
<path d="M259.469 105.366H37.1924C36.1011 105.364 35.0549 104.93 34.2832 104.158C33.5115 103.387 33.0775 102.341 33.0762 101.249V46.1118C33.0775 45.0205 33.5115 43.9743 34.2832 43.2026C35.0549 42.431 36.1011 41.9969 37.1924 41.9956H259.469C260.561 41.9969 261.607 42.431 262.379 43.2026C263.15 43.9743 263.584 45.0205 263.586 46.1118V101.249C263.584 102.341 263.15 103.387 262.379 104.158C261.607 104.93 260.561 105.364 259.469 105.366ZM37.1924 43.6421C36.5376 43.6428 35.9098 43.9032 35.4468 44.3662C34.9838 44.8293 34.7234 45.457 34.7226 46.1118V101.249C34.7233 101.904 34.9838 102.532 35.4468 102.995C35.9098 103.458 36.5376 103.718 37.1924 103.719H259.469C260.124 103.718 260.752 103.458 261.215 102.995C261.678 102.532 261.939 101.904 261.939 101.249V46.1118C261.939 45.457 261.678 44.8293 261.215 44.3662C260.752 43.9032 260.124 43.6428 259.469 43.6421L37.1924 43.6421Z" fill="#E6E6E6"/>
<path d="M259.469 323.526H37.1924C36.1011 323.525 35.0549 323.091 34.2832 322.319C33.5116 321.547 33.0775 320.501 33.0762 319.41V217.347C33.0775 216.256 33.5115 215.21 34.2832 214.438C35.0549 213.666 36.1011 213.232 37.1924 213.231H259.469C260.561 213.232 261.607 213.666 262.379 214.438C263.15 215.21 263.584 216.256 263.586 217.347V319.41C263.584 320.501 263.15 321.547 262.379 322.319C261.607 323.091 260.561 323.525 259.469 323.526ZM37.1924 214.877C36.5376 214.878 35.9098 215.139 35.4468 215.602C34.9838 216.065 34.7233 216.692 34.7226 217.347V319.41C34.7233 320.065 34.9838 320.692 35.4468 321.155C35.9098 321.618 36.5376 321.879 37.1924 321.879H259.469C260.124 321.879 260.752 321.618 261.215 321.155C261.678 320.692 261.939 320.065 261.939 319.41V217.347C261.939 216.692 261.678 216.065 261.215 215.602C260.752 215.139 260.124 214.878 259.469 214.877L37.1924 214.877Z" fill="#E6E6E6"/>
<path d="M257.823 190.983H159.033C157.942 190.982 156.896 190.548 156.124 189.776C155.352 189.004 154.918 187.958 154.917 186.867V131.73C154.918 130.638 155.352 129.592 156.124 128.82C156.896 128.049 157.942 127.615 159.033 127.613H257.823C258.915 127.615 259.961 128.049 260.732 128.82C261.504 129.592 261.938 130.638 261.939 131.73V186.867C261.938 187.958 261.504 189.005 260.732 189.776C259.961 190.548 258.915 190.982 257.823 190.983ZM159.033 129.26C158.378 129.26 157.751 129.521 157.288 129.984C156.825 130.447 156.564 131.075 156.563 131.73V186.867C156.564 187.522 156.825 188.15 157.288 188.613C157.751 189.076 158.378 189.336 159.033 189.337H257.823C258.478 189.336 259.106 189.076 259.569 188.613C260.032 188.15 260.292 187.522 260.293 186.867V131.729C260.292 131.075 260.032 130.447 259.569 129.984C259.106 129.521 258.478 129.26 257.823 129.26L159.033 129.26Z" fill="#E6E6E6"/>
<path d="M135.982 456.892H37.1924C36.1011 456.89 35.0549 456.456 34.2832 455.685C33.5115 454.913 33.0774 453.867 33.0762 452.775V349.89C33.0775 348.798 33.5116 347.752 34.2832 346.98C35.0549 346.209 36.1011 345.775 37.1924 345.773H135.982C137.074 345.775 138.12 346.209 138.892 346.98C139.663 347.752 140.097 348.798 140.099 349.89V452.775C140.097 453.867 139.663 454.913 138.892 455.685C138.12 456.456 137.074 456.89 135.982 456.892ZM37.1924 347.42C36.5376 347.421 35.9098 347.681 35.4468 348.144C34.9838 348.607 34.7233 349.235 34.7226 349.89V452.775C34.7233 453.43 34.9838 454.058 35.4468 454.521C35.9098 454.984 36.5376 455.244 37.1924 455.245H135.982C136.637 455.244 137.265 454.984 137.728 454.521C138.191 454.058 138.451 453.43 138.452 452.775V349.89C138.451 349.235 138.191 348.607 137.728 348.144C137.265 347.681 136.637 347.421 135.982 347.42H37.1924Z" fill="#E6E6E6"/>
<path d="M257.823 456.892H159.033C157.942 456.89 156.896 456.456 156.124 455.685C155.352 454.913 154.918 453.867 154.917 452.775V349.89C154.918 348.798 155.352 347.752 156.124 346.98C156.896 346.209 157.942 345.775 159.033 345.773H257.823C258.915 345.775 259.961 346.209 260.732 346.98C261.504 347.752 261.938 348.798 261.939 349.89V452.775C261.938 453.867 261.504 454.913 260.732 455.685C259.961 456.456 258.915 456.89 257.823 456.892ZM159.033 347.42C158.378 347.421 157.751 347.681 157.288 348.144C156.825 348.607 156.564 349.235 156.563 349.89V452.775C156.564 453.43 156.825 454.058 157.288 454.521C157.751 454.984 158.378 455.244 159.033 455.245H257.823C258.478 455.244 259.106 454.984 259.569 454.521C260.032 454.058 260.292 453.43 260.293 452.775V349.89C260.292 349.235 260.032 348.607 259.569 348.144C259.106 347.681 258.478 347.421 257.823 347.42H159.033Z" fill="#E6E6E6"/>
<path d="M70.0828 266.154C79.3432 266.154 86.8502 258.647 86.8502 249.386C86.8502 240.126 79.3432 232.619 70.0828 232.619C60.8224 232.619 53.3154 240.126 53.3154 249.386C53.3154 258.647 60.8224 266.154 70.0828 266.154Z" fill="#E6E6E6"/>
<path d="M108.808 238.208C108.067 238.208 107.356 238.502 106.832 239.027C106.308 239.551 106.014 240.261 106.014 241.003C106.014 241.744 106.308 242.455 106.832 242.979C107.356 243.503 108.067 243.797 108.808 243.797H240.552C241.292 243.795 242.001 243.5 242.524 242.976C243.046 242.452 243.34 241.743 243.34 241.003C243.34 240.263 243.046 239.553 242.524 239.029C242.001 238.505 241.292 238.21 240.552 238.208H108.808Z" fill="#E6E6E6"/>
<path d="M108.808 254.976C108.068 254.975 107.357 255.268 106.832 255.791C106.308 256.314 106.012 257.024 106.011 257.764C106.009 258.505 106.302 259.216 106.824 259.741C107.346 260.266 108.056 260.562 108.797 260.565H165.498C166.239 260.565 166.95 260.27 167.474 259.746C167.998 259.222 168.293 258.511 168.293 257.77C168.293 257.029 167.998 256.318 167.474 255.794C166.95 255.27 166.239 254.976 165.498 254.976H108.808Z" fill="#E6E6E6"/>
<path d="M57.2218 281.782C55.0961 281.782 53.3662 283.036 53.3662 284.576C53.3662 286.117 55.0961 287.371 57.2218 287.371H238.987C241.113 287.371 242.843 286.117 242.843 284.576C242.843 283.036 241.113 281.782 238.987 281.782H57.2218Z" fill="#E6E6E6"/>
<path d="M57.2218 298.549C55.0961 298.549 53.3662 299.803 53.3662 301.343C53.3662 302.884 55.0961 304.138 57.2218 304.138H238.987C241.113 304.138 242.843 302.884 242.843 301.343C242.843 299.803 241.113 298.549 238.987 298.549H57.2218Z" fill="#E6E6E6"/>
<path d="M71.7293 88.3326C80.9896 88.3326 88.4966 80.8256 88.4966 71.5652C88.4966 62.3049 80.9896 54.7979 71.7293 54.7979C62.4689 54.7979 54.9619 62.3049 54.9619 71.5652C54.9619 80.8256 62.4689 88.3326 71.7293 88.3326Z" fill="#E6E6E6"/>
<path d="M110.454 60.3867C109.714 60.3885 109.005 60.6836 108.482 61.2075C107.96 61.7314 107.666 62.4412 107.666 63.1813C107.666 63.9213 107.96 64.6311 108.482 65.155C109.005 65.6789 109.714 65.9741 110.454 65.9758H242.198C242.565 65.977 242.929 65.9057 243.268 65.7662C243.608 65.6266 243.917 65.4215 244.177 65.1625C244.438 64.9035 244.644 64.5958 244.786 64.2568C244.927 63.9179 245 63.5544 245.001 63.1872C245.002 62.82 244.93 62.4562 244.79 62.1166C244.65 61.7771 244.445 61.4685 244.186 61.2084C243.926 60.9483 243.618 60.7419 243.279 60.6009C242.94 60.4599 242.577 60.3871 242.209 60.3867C242.205 60.3867 242.202 60.3867 242.198 60.3867H110.454Z" fill="#E6E6E6"/>
<path d="M110.454 77.1543C109.714 77.1555 109.004 77.4505 108.481 77.9744C107.958 78.4984 107.664 79.2085 107.664 79.9489C107.664 80.6892 107.958 81.3993 108.481 81.9233C109.004 82.4472 109.714 82.7422 110.454 82.7434H167.144C167.885 82.745 168.596 82.4521 169.121 81.9291C169.647 81.4061 169.943 80.6959 169.944 79.9547C169.946 79.2136 169.653 78.5022 169.13 77.977C168.607 77.4518 167.897 77.1559 167.155 77.1543C167.152 77.1543 167.148 77.1543 167.144 77.1543H110.454Z" fill="#E6E6E6"/>
<path d="M135.894 190.993H43.2207L65.0299 153.218C65.4207 152.541 65.983 151.979 66.66 151.588C67.337 151.197 68.1051 150.991 68.8868 150.991C69.6686 150.991 70.4366 151.197 71.1137 151.588C71.7907 151.979 72.3529 152.541 72.7438 153.218L82.0604 169.355L97.9018 141.917C98.3912 141.069 99.0951 140.365 99.9428 139.876C100.79 139.387 101.752 139.129 102.731 139.129C103.71 139.129 104.671 139.387 105.519 139.876C106.366 140.365 107.07 141.069 107.56 141.917L135.894 190.993ZM46.0723 189.347H133.043L106.134 142.74C105.789 142.143 105.293 141.647 104.696 141.302C104.098 140.957 103.421 140.775 102.731 140.775C102.041 140.775 101.364 140.957 100.766 141.302C100.169 141.647 99.6729 142.143 99.3281 142.74L82.0604 172.648L71.3177 154.041C71.0714 153.615 70.7171 153.26 70.2904 153.014C69.8637 152.767 69.3796 152.638 68.8869 152.638C68.3942 152.638 67.9101 152.767 67.4834 153.014C67.0567 153.26 66.7024 153.615 66.4562 154.041L46.0723 189.347Z" fill="#E6E6E6"/>
<path d="M254.443 190.993H161.77L183.579 153.218C183.97 152.541 184.532 151.979 185.209 151.588C185.886 151.197 186.654 150.991 187.436 150.991C188.217 150.991 188.985 151.197 189.663 151.588C190.34 151.979 190.902 152.541 191.293 153.218L200.609 169.355L216.451 141.917C216.94 141.069 217.644 140.365 218.492 139.876C219.339 139.387 220.301 139.129 221.28 139.129C222.258 139.129 223.22 139.387 224.068 139.876C224.915 140.365 225.619 141.069 226.109 141.917L254.443 190.993ZM164.621 189.347H251.591L224.682 142.74C224.338 142.143 223.842 141.647 223.244 141.302C222.647 140.957 221.969 140.775 221.28 140.775C220.59 140.775 219.912 140.957 219.315 141.302C218.718 141.647 218.222 142.143 217.877 142.74L200.609 172.648L189.866 154.041C189.62 153.615 189.266 153.26 188.839 153.014C188.412 152.767 187.928 152.638 187.436 152.638C186.943 152.638 186.459 152.767 186.032 153.014C185.606 153.26 185.251 153.615 185.005 154.041L164.621 189.347Z" fill="#E6E6E6"/>
<path d="M135.982 190.983H37.1924C36.1011 190.982 35.0549 190.548 34.2832 189.776C33.5115 189.004 33.0774 187.958 33.0762 186.867V131.73C33.0775 130.638 33.5115 129.592 34.2832 128.82C35.0549 128.049 36.1011 127.615 37.1924 127.613H135.982C137.074 127.615 138.12 128.049 138.892 128.82C139.663 129.592 140.097 130.638 140.099 131.73V186.867C140.097 187.958 139.663 189.005 138.892 189.776C138.12 190.548 137.074 190.982 135.982 190.983ZM37.1924 129.26C36.5376 129.26 35.9098 129.521 35.4468 129.984C34.9838 130.447 34.7233 131.075 34.7226 131.73V186.867C34.7233 187.522 34.9838 188.15 35.4468 188.613C35.9098 189.076 36.5376 189.336 37.1924 189.337H135.982C136.637 189.336 137.265 189.076 137.728 188.613C138.191 188.15 138.451 187.522 138.452 186.867V131.729C138.451 131.075 138.191 130.447 137.728 129.984C137.265 129.521 136.637 129.26 135.982 129.26L37.1924 129.26Z" fill="#E6E6E6"/>
<path d="M58.2426 366.991C57.8752 366.99 57.5113 367.062 57.1717 367.202C56.8321 367.342 56.5235 367.548 56.2635 367.808C56.0035 368.067 55.7973 368.375 55.6565 368.715C55.5158 369.054 55.4434 369.418 55.4434 369.785C55.4434 370.153 55.5158 370.516 55.6565 370.856C55.7973 371.195 56.0035 371.503 56.2635 371.763C56.5235 372.023 56.8321 372.228 57.1717 372.369C57.5113 372.509 57.8752 372.58 58.2426 372.58H114.932C115.3 372.58 115.664 372.509 116.003 372.369C116.343 372.228 116.651 372.023 116.911 371.763C117.171 371.503 117.378 371.195 117.518 370.856C117.659 370.516 117.731 370.153 117.731 369.785C117.731 369.418 117.659 369.054 117.518 368.715C117.378 368.375 117.171 368.067 116.911 367.808C116.651 367.548 116.343 367.342 116.003 367.202C115.664 367.062 115.3 366.99 114.932 366.991H58.2426Z" fill="#E6E6E6"/>
<path d="M58.2418 383.456C57.5007 383.456 56.7899 383.75 56.2658 384.274C55.7417 384.798 55.4473 385.509 55.4473 386.25C55.4473 386.991 55.7417 387.702 56.2658 388.226C56.7899 388.75 57.5007 389.045 58.2418 389.045H114.932C115.673 389.045 116.383 388.75 116.908 388.226C117.432 387.702 117.726 386.991 117.726 386.25C117.726 385.509 117.432 384.798 116.908 384.274C116.383 383.75 115.673 383.456 114.932 383.456H58.2418Z" fill="#E6E6E6"/>
<path d="M86.5875 435.675C83.1085 435.675 79.7075 434.643 76.8148 432.711C73.9221 430.778 71.6675 428.03 70.3361 424.816C69.0047 421.602 68.6563 418.065 69.3351 414.653C70.0138 411.241 71.6892 408.106 74.1492 405.646C76.6093 403.186 79.7436 401.511 83.1558 400.832C86.5681 400.153 90.1049 400.502 93.3192 401.833C96.5334 403.165 99.2806 405.419 101.214 408.312C103.146 411.205 104.178 414.606 104.178 418.085C104.173 422.748 102.318 427.219 99.0201 430.517C95.7224 433.815 91.2512 435.67 86.5875 435.675ZM86.5875 402.141C83.4341 402.141 80.3515 403.076 77.7295 404.828C75.1076 406.58 73.064 409.07 71.8572 411.983C70.6505 414.897 70.3347 418.102 70.9499 421.195C71.5651 424.288 73.0837 427.129 75.3135 429.359C77.5433 431.589 80.3842 433.107 83.4771 433.722C86.5699 434.337 89.7757 434.022 92.6891 432.815C95.6025 431.608 98.0926 429.565 99.8445 426.943C101.596 424.321 102.532 421.238 102.532 418.085C102.527 413.857 100.845 409.805 97.8562 406.816C94.8672 403.827 90.8146 402.146 86.5875 402.141Z" fill="#E6E6E6"/>
<path d="M236.773 435.675C237.14 435.676 237.504 435.604 237.843 435.464C238.183 435.324 238.492 435.118 238.752 434.858C239.012 434.599 239.218 434.29 239.359 433.951C239.499 433.612 239.572 433.248 239.572 432.881C239.572 432.513 239.499 432.149 239.359 431.81C239.218 431.471 239.012 431.162 238.752 430.903C238.492 430.643 238.183 430.438 237.843 430.297C237.504 430.157 237.14 430.085 236.773 430.086H180.083C179.343 430.087 178.633 430.382 178.11 430.906C177.587 431.43 177.293 432.14 177.293 432.881C177.293 433.621 177.587 434.331 178.11 434.855C178.633 435.379 179.343 435.674 180.083 435.675H236.773Z" fill="#E6E6E6"/>
<path d="M236.772 419.21C237.14 419.211 237.504 419.139 237.843 418.999C238.183 418.859 238.491 418.653 238.751 418.393C239.011 418.134 239.218 417.826 239.358 417.486C239.499 417.147 239.572 416.783 239.572 416.416C239.572 416.048 239.499 415.685 239.358 415.345C239.218 415.006 239.011 414.698 238.751 414.438C238.491 414.178 238.183 413.973 237.843 413.833C237.504 413.692 237.14 413.62 236.772 413.621H180.083C179.341 413.621 178.631 413.916 178.107 414.44C177.583 414.964 177.288 415.675 177.288 416.416C177.288 417.157 177.583 417.868 178.107 418.392C178.631 418.916 179.341 419.21 180.083 419.21H236.772Z" fill="#E6E6E6"/>
<path d="M208.427 366.991C211.906 366.991 215.307 368.022 218.2 369.955C221.093 371.888 223.347 374.635 224.679 377.85C226.01 381.064 226.359 384.601 225.68 388.013C225.001 391.425 223.326 394.559 220.866 397.02C218.406 399.48 215.271 401.155 211.859 401.834C208.447 402.512 204.91 402.164 201.696 400.833C198.482 399.501 195.734 397.247 193.801 394.354C191.869 391.461 190.837 388.06 190.837 384.581C190.842 379.918 192.697 375.446 195.995 372.149C199.293 368.851 203.764 366.996 208.427 366.991ZM208.427 400.525C211.581 400.525 214.663 399.59 217.285 397.838C219.907 396.086 221.951 393.596 223.158 390.683C224.365 387.769 224.68 384.564 224.065 381.471C223.45 378.378 221.931 375.537 219.702 373.307C217.472 371.077 214.631 369.559 211.538 368.944C208.445 368.328 205.239 368.644 202.326 369.851C199.413 371.058 196.923 373.101 195.171 375.723C193.419 378.345 192.483 381.428 192.483 384.581C192.488 388.808 194.17 392.861 197.159 395.85C200.148 398.839 204.2 400.52 208.427 400.525Z" fill="#E6E6E6"/>
<path opacity="0.3" d="M181.481 143.569C204.477 143.569 223.119 124.927 223.119 101.931C223.119 78.935 204.477 60.293 181.481 60.293C158.485 60.293 139.843 78.935 139.843 101.931C139.843 124.927 158.485 143.569 181.481 143.569Z" fill="#6C63FF"/>
<path opacity="0.3" d="M181.481 129.69C196.812 129.69 209.24 117.262 209.24 101.931C209.24 86.6004 196.812 74.1724 181.481 74.1724C166.151 74.1724 153.723 86.6004 153.723 101.931C153.723 117.262 166.151 129.69 181.481 129.69Z" fill="#6C63FF"/>
<path d="M181.481 121.208C192.127 121.208 200.758 112.578 200.758 101.931C200.758 91.2849 192.127 82.6543 181.481 82.6543C170.835 82.6543 162.204 91.2849 162.204 101.931C162.204 112.578 170.835 121.208 181.481 121.208Z" fill="#6C63FF"/>
<path opacity="0.3" d="M86.6379 414.157C103.639 414.157 117.42 400.375 117.42 383.375C117.42 366.374 103.639 352.592 86.6379 352.592C69.6372 352.592 55.8555 366.374 55.8555 383.375C55.8555 400.375 69.6372 414.157 86.6379 414.157Z" fill="#6C63FF"/>
<path opacity="0.3" d="M86.6388 403.896C97.9726 403.896 107.16 394.708 107.16 383.375C107.16 372.041 97.9726 362.853 86.6388 362.853C75.305 362.853 66.1172 372.041 66.1172 383.375C66.1172 394.708 75.305 403.896 86.6388 403.896Z" fill="#6C63FF"/>
<path d="M86.6388 397.626C94.5095 397.626 100.89 391.245 100.89 383.375C100.89 375.504 94.5095 369.124 86.6388 369.124C78.7681 369.124 72.3877 375.504 72.3877 383.375C72.3877 391.245 78.7681 397.626 86.6388 397.626Z" fill="#6C63FF"/>
<path opacity="0.3" d="M214.637 298.495C234.193 298.495 250.046 282.642 250.046 263.086C250.046 243.53 234.193 227.677 214.637 227.677C195.082 227.677 179.229 243.53 179.229 263.086C179.229 282.642 195.082 298.495 214.637 298.495Z" fill="#6C63FF"/>
<path opacity="0.3" d="M214.637 286.692C227.674 286.692 238.243 276.124 238.243 263.086C238.243 250.049 227.674 239.48 214.637 239.48C201.6 239.48 191.031 250.049 191.031 263.086C191.031 276.124 201.6 286.692 214.637 286.692Z" fill="#6C63FF"/>
<path d="M214.638 279.479C223.692 279.479 231.031 272.14 231.031 263.086C231.031 254.033 223.692 246.693 214.638 246.693C205.585 246.693 198.245 254.033 198.245 263.086C198.245 272.14 205.585 279.479 214.638 279.479Z" fill="#6C63FF"/>
<path d="M379.233 318.065L371.949 330.37C371.228 331.587 370.236 332.621 369.051 333.392C367.865 334.163 366.517 334.65 365.112 334.815C363.707 334.979 362.284 334.817 360.952 334.341C359.62 333.866 358.416 333.089 357.433 332.071C356.519 331.124 355.819 329.992 355.38 328.751C354.942 327.51 354.775 326.189 354.891 324.878C355.008 323.567 355.404 322.296 356.054 321.152C356.705 320.007 357.593 319.016 358.66 318.245L370.508 309.678C381.884 294.279 388.421 268.106 393.991 239.781L417.14 242.496C411.173 265.663 396.905 291.348 379.233 318.065Z" fill="#FFB8B8"/>
<path d="M382.101 248.042L419.743 258.717V192.982L414.746 194.599C410.381 196.011 406.415 198.442 403.175 201.69C399.935 204.938 397.514 208.911 396.113 213.279L382.101 248.042Z" fill="#E6E6E6"/>
<path d="M459.071 483.449L445.025 482.888C440.413 435.416 434.523 392.304 422.552 369.959C410.959 382.377 408.325 421.609 406.385 475.022H392.775C378.467 413.467 374.854 369.824 392.775 328.384H465.813L459.071 483.449Z" fill="#2F2E41"/>
<path d="M407.233 484.541L382.854 496.996C382.201 497.33 381.487 497.526 380.756 497.573C380.024 497.62 379.291 497.516 378.601 497.269C377.911 497.022 377.279 496.636 376.744 496.135C376.209 495.634 375.782 495.029 375.49 494.357C374.971 493.164 374.904 491.823 375.299 490.583C375.695 489.344 376.528 488.291 377.642 487.619L380.966 485.616L390.223 471.778L405.999 470.532L408.885 473.298C409.689 474.068 410.296 475.018 410.657 476.07C411.017 477.122 411.121 478.245 410.96 479.346C410.798 480.446 410.375 481.492 409.727 482.396C409.079 483.3 408.224 484.035 407.233 484.541Z" fill="#2F2E41"/>
<path d="M456.775 496.213L429.41 496.982C428.677 497.002 427.948 496.873 427.267 496.601C426.587 496.329 425.969 495.92 425.452 495.4C424.936 494.881 424.531 494.26 424.263 493.578C423.995 492.896 423.87 492.166 423.895 491.434C423.939 490.133 424.454 488.894 425.344 487.945C426.234 486.996 427.438 486.403 428.733 486.275L432.596 485.895L446.901 477.377L461.682 483.033L463.099 486.77C463.493 487.81 463.633 488.93 463.507 490.035C463.381 491.14 462.992 492.199 462.373 493.123C461.754 494.047 460.923 494.81 459.949 495.347C458.975 495.885 457.887 496.181 456.775 496.213Z" fill="#2F2E41"/>
<path d="M428.951 180.827C439.095 180.827 447.319 172.604 447.319 162.46C447.319 152.315 439.095 144.092 428.951 144.092C418.807 144.092 410.583 152.315 410.583 162.46C410.583 172.604 418.807 180.827 428.951 180.827Z" fill="#FFB8B8"/>
<path d="M459.071 191.859L420.866 206.466C423.092 194.472 423.12 183.172 419.462 173.037L443.902 168.824C441.851 179.36 448.204 186.517 459.071 191.859Z" fill="#FFB8B8"/>
<path d="M474.802 339.058C441.176 345.443 414.1 341.347 392.213 328.946C402.336 294.067 403.776 255.477 401.126 215.138C400.865 211.105 401.864 207.09 403.985 203.649C406.106 200.208 409.244 197.512 412.965 195.933L422.552 191.859C427.721 203.606 439.635 196.836 452.329 187.926L468.015 194.857C470.505 195.956 472.6 197.79 474.02 200.114C475.439 202.437 476.115 205.138 475.956 207.856C472.82 261.441 468.606 318.889 474.802 339.058Z" fill="#E6E6E6"/>
<path d="M486.04 331.193L485.04 345.525C484.857 348.136 483.649 350.57 481.679 352.294C479.708 354.017 477.135 354.891 474.523 354.724C472.811 354.615 471.157 354.063 469.722 353.123C468.287 352.183 467.121 350.886 466.338 349.36C465.554 347.834 465.181 346.131 465.253 344.417C465.325 342.703 465.841 341.037 466.75 339.583L474.803 326.699C479.561 308.153 475.787 281.441 470.308 253.099L492.782 246.918C495.955 270.63 492.381 299.794 486.04 331.193Z" fill="#FFB8B8"/>
<path d="M449.977 150.527C449.977 150.527 453.411 142.972 444.483 139.539C444.483 139.539 436.929 127.177 421.821 135.418C421.821 135.418 411.52 139.539 411.52 150.527C411.52 161.514 408.086 163.575 408.086 163.575C408.086 163.575 413.199 158.329 414.573 154.208C415.946 150.088 426.628 149.153 430.748 153.274C434.869 157.394 445.17 156.707 445.17 156.707L444.483 171.816C444.483 171.816 447.917 162.888 449.29 162.888C450.664 162.888 452.037 150.527 449.977 150.527Z" fill="#2F2E41"/>
<path d="M500.647 247.48L463.004 258.155V192.42L468.001 194.037C472.366 195.449 476.332 197.88 479.572 201.128C482.812 204.376 485.233 208.349 486.634 212.717L500.647 247.48Z" fill="#E6E6E6"/>
</g>
<defs>
<clipPath id="clip0_40_926">
<rect width="640.816" height="498.888" fill="white" transform="translate(0.557617)"/>
</clipPath>
</defs>
</svg>
